<svg width="110" height="24" viewBox="0 0 110 24" fill="none" xmlns="http://www.w3.org/2000/svg">
<path d="M20.44 0.535999V23H14.968V13.752H6.456V23H0.984V0.535999H6.456V9.336H14.968V0.535999H20.44ZM29.8623 18.776H37.0303V23H24.3903V0.535999H29.8623V18.776ZM48.0563 0.535999C50.4243 0.535999 52.4936 1.00533 54.2643 1.944C56.0349 2.88267 57.4003 4.20533 58.3603 5.912C59.3416 7.59733 59.8323 9.54933 59.8323 11.768C59.8323 13.9653 59.3416 15.9173 58.3603 17.624C57.4003 19.3307 56.0243 20.6533 54.2323 21.592C52.4616 22.5307 50.4029 23 48.0563 23H39.6403V0.535999H48.0563ZM47.7043 18.264C49.7736 18.264 51.3843 17.6987 52.5363 16.568C53.6883 15.4373 54.2643 13.8373 54.2643 11.768C54.2643 9.69867 53.6883 8.088 52.5363 6.936C51.3843 5.784 49.7736 5.208 47.7043 5.208H45.1123V18.264H47.7043ZM68.3623 4.92V9.464H75.6903V13.688H68.3623V18.616H76.6503V23H62.8903V0.535999H76.6503V4.92H68.3623ZM101.291 0.535999L93.3228 23H86.4748L78.5068 0.535999H84.3308L89.8988 17.496L95.4988 0.535999H101.291Z" fill="white"/>
<path d="M106.138 23.256C105.178 23.256 104.388 22.9787 103.77 22.424C103.172 21.848 102.874 21.144 102.874 20.312C102.874 19.4587 103.172 18.744 103.77 18.168C104.388 17.592 105.178 17.304 106.138 17.304C107.076 17.304 107.844 17.592 108.442 18.168C109.06 18.744 109.37 19.4587 109.37 20.312C109.37 21.144 109.06 21.848 108.442 22.424C107.844 22.9787 107.076 23.256 106.138 23.256Z" fill="#FFAB00"/>
</svg>
